HIERARCHY
ROOT Hips
{
	OFFSET -14.64140 90.27770 -84.91600
	CHANNELS 6 Xposition Yposition Zposition Zrotation Xrotation Yrotation
	JOINT Spine
	{
		OFFSET 0.00000 13.20850 -1.60436
		CHANNELS 3 Zrotation Xrotation Yrotation
		JOINT Spine1
		{
			OFFSET 0.00000 8.61716 0.00000
			CHANNELS 3 Zrotation Xrotation Yrotation
			JOINT Spine2
			{
				OFFSET 0.00000 8.61717 0.00000
				CHANNELS 3 Zrotation Xrotation Yrotation
				JOINT Spine3
				{
					OFFSET 0.00000 8.61717 0.00000
					CHANNELS 3 Zrotation Xrotation Yrotation
					JOINT Neck
					{
						OFFSET 0.00000 11.07920 1.10792
						CHANNELS 3 Zrotation Xrotation Yrotation
						JOINT Neck1
						{
							OFFSET 0.00000 7.08032 0.00000
							CHANNELS 3 Zrotation Xrotation Yrotation
							JOINT Head
							{
								OFFSET 0.00000 7.08031 0.00000
								CHANNELS 3 Zrotation Xrotation Yrotation
								End site
								{
									OFFSET 0.00000 0.00000 0.00000
								}
							}
						}
					}
					JOINT RightShoulder
					{
						OFFSET -0.01000 7.91373 5.19711
						CHANNELS 3 Zrotation Xrotation Yrotation
						JOINT RightArm
						{
							OFFSET -18.41580 0.00000 0.00000
							CHANNELS 3 Zrotation Xrotation Yrotation
							JOINT RightForeArm
							{
								OFFSET -29.11090 0.00000 0.00000
								CHANNELS 3 Zrotation Xrotation Yrotation
								JOINT RightHand
								{
									OFFSET -24.65040 0.00000 0.00000
									CHANNELS 3 Zrotation Xrotation Yrotation
									JOINT RightHandThumb1
									{
										OFFSET -5.35114 -0.85590 3.97906
										CHANNELS 3 Zrotation Xrotation Yrotation
										JOINT RightHandThumb2
										{
											OFFSET -4.52789 0.00000 0.00000
											CHANNELS 3 Zrotation Xrotation Yrotation
											JOINT RightHandThumb3
											{
												OFFSET -2.46976 0.00000 0.00000
												CHANNELS 3 Zrotation Xrotation Yrotation
												End site
												{
													OFFSET 0.00000 0.00000 0.00000
												}
											}
										}
									}
									JOINT RightHandIndex1
									{
										OFFSET -14.26970 0.00000 2.88139
										CHANNELS 3 Zrotation Xrotation Yrotation
										JOINT RightHandIndex2
										{
											OFFSET -5.48836 0.00000 0.00000
											CHANNELS 3 Zrotation Xrotation Yrotation
											JOINT RightHandIndex3
											{
												OFFSET -3.01859 0.00000 0.00000
												CHANNELS 3 Zrotation Xrotation Yrotation
												End site
												{
													OFFSET 0.00000 0.00000 0.00000
												}
											}
										}
									}
									JOINT RightHandMiddle1
									{
										OFFSET -14.26970 0.00000 -0.09147
										CHANNELS 3 Zrotation Xrotation Yrotation
										JOINT RightHandMiddle2
										{
											OFFSET -6.17441 0.00000 0.00000
											CHANNELS 3 Zrotation Xrotation Yrotation
											JOINT RightHandMiddle3
											{
												OFFSET -3.56743 0.00000 0.00000
												CHANNELS 3 Zrotation Xrotation Yrotation
												End site
												{
													OFFSET 0.00000 0.00000 0.00000
												}
											}
										}
									}
									JOINT RightHandRing1
									{
										OFFSET -12.69180 0.00000 -3.06433
										CHANNELS 3 Zrotation Xrotation Yrotation
										JOINT RightHandRing2
										{
											OFFSET -5.62556 0.00000 0.00000
											CHANNELS 3 Zrotation Xrotation Yrotation
											JOINT RightHandRing3
											{
												OFFSET -3.56744 0.00000 0.00000
												CHANNELS 3 Zrotation Xrotation Yrotation
												End site
												{
													OFFSET 0.00000 0.00000 0.00000
												}
											}
										}
									}
									JOINT RightHandPinky1
									{
										OFFSET -11.11390 0.00000 -6.03719
										CHANNELS 3 Zrotation Xrotation Yrotation
										JOINT RightHandPinky2
										{
											OFFSET -4.52789 0.00000 0.00000
											CHANNELS 3 Zrotation Xrotation Yrotation
											JOINT RightHandPinky3
											{
												OFFSET -2.46976 0.00000 0.00000
												CHANNELS 3 Zrotation Xrotation Yrotation
												End site
												{
													OFFSET 0.00000 0.00000 0.00000
												}
											}
										}
									}
								}
							}
						}
					}
					JOINT LeftShoulder
					{
						OFFSET 0.01000 7.91373 5.19711
						CHANNELS 3 Zrotation Xrotation Yrotation
						JOINT LeftArm
						{
							OFFSET 18.41580 0.00000 0.00000
							CHANNELS 3 Zrotation Xrotation Yrotation
							JOINT LeftForeArm
							{
								OFFSET 29.11090 0.00000 0.00000
								CHANNELS 3 Zrotation Xrotation Yrotation
								JOINT LeftHand
								{
									OFFSET 24.65040 0.00000 0.00000
									CHANNELS 3 Zrotation Xrotation Yrotation
									JOINT LeftHandThumb1
									{
										OFFSET 5.35114 -0.85590 3.97906
										CHANNELS 3 Zrotation Xrotation Yrotation
										JOINT LeftHandThumb2
										{
											OFFSET 4.52789 0.00000 0.00000
											CHANNELS 3 Zrotation Xrotation Yrotation
											JOINT LeftHandThumb3
											{
												OFFSET 2.46977 0.00000 0.00000
												CHANNELS 3 Zrotation Xrotation Yrotation
												End site
												{
													OFFSET 0.00000 0.00000 0.00000
												}
											}
										}
									}
									JOINT LeftHandIndex1
									{
										OFFSET 14.26970 0.00000 2.88139
										CHANNELS 3 Zrotation Xrotation Yrotation
										JOINT LeftHandIndex2
										{
											OFFSET 5.48836 0.00000 0.00000
											CHANNELS 3 Zrotation Xrotation Yrotation
											JOINT LeftHandIndex3
											{
												OFFSET 3.01859 0.00000 0.00000
												CHANNELS 3 Zrotation Xrotation Yrotation
												End site
												{
													OFFSET 0.00000 0.00000 0.00000
												}
											}
										}
									}
									JOINT LeftHandMiddle1
									{
										OFFSET 14.26970 0.00000 -0.09147
										CHANNELS 3 Zrotation Xrotation Yrotation
										JOINT LeftHandMiddle2
										{
											OFFSET 6.17440 0.00000 0.00000
											CHANNELS 3 Zrotation Xrotation Yrotation
											JOINT LeftHandMiddle3
											{
												OFFSET 3.56744 0.00000 0.00000
												CHANNELS 3 Zrotation Xrotation Yrotation
												End site
												{
													OFFSET 0.00000 0.00000 0.00000
												}
											}
										}
									}
									JOINT LeftHandRing1
									{
										OFFSET 12.69180 0.00000 -3.06433
										CHANNELS 3 Zrotation Xrotation Yrotation
										JOINT LeftHandRing2
										{
											OFFSET 5.62556 0.00000 0.00000
											CHANNELS 3 Zrotation Xrotation Yrotation
											JOINT LeftHandRing3
											{
												OFFSET 3.56744 0.00000 0.00000
												CHANNELS 3 Zrotation Xrotation Yrotation
												End site
												{
													OFFSET 0.00000 0.00000 0.00000
												}
											}
										}
									}
									JOINT LeftHandPinky1
									{
										OFFSET 11.11390 0.00000 -6.03719
										CHANNELS 3 Zrotation Xrotation Yrotation
										JOINT LeftHandPinky2
										{
											OFFSET 4.52789 0.00000 0.00000
											CHANNELS 3 Zrotation Xrotation Yrotation
											JOINT LeftHandPinky3
											{
												OFFSET 2.46976 0.00000 0.00000
												CHANNELS 3 Zrotation Xrotation Yrotation
												End site
												{
													OFFSET 0.00000 0.00000 0.00000
												}
											}
										}
									}
								}
							}
						}
					}
					JOINT pCube4
					{
						OFFSET 0.00000 10.91090 1.10792
						CHANNELS 3 Zrotation Xrotation Yrotation
						End site
						{
							OFFSET 0.00000 0.00000 0.00000
						}
					}
				}
			}
		}
	}
	JOINT RightUpLeg
	{
		OFFSET -9.98441 0.00000 0.00000
		CHANNELS 3 Zrotation Xrotation Yrotation
		JOINT RightLeg
		{
			OFFSET 0.00000 -42.11790 0.00000
			CHANNELS 3 Zrotation Xrotation Yrotation
			JOINT RightFoot
			{
				OFFSET 0.00000 -45.00020 -0.00001
				CHANNELS 3 Zrotation Xrotation Yrotation
				JOINT RightForeFoot
				{
					OFFSET 0.00000 -3.74820 0.00000
					CHANNELS 3 Zrotation Xrotation Yrotation
					JOINT RightToeBase
					{
						OFFSET 0.00000 0.06325 14.43120
						CHANNELS 3 Zrotation Xrotation Yrotation
						End site
						{
							OFFSET 0.00000 0.00000 0.00000
						}
					}
				}
			}
		}
	}
	JOINT LeftUpLeg
	{
		OFFSET 9.98441 0.00000 0.00000
		CHANNELS 3 Zrotation Xrotation Yrotation
		JOINT LeftLeg
		{
			OFFSET 0.00000 -42.11800 0.00000
			CHANNELS 3 Zrotation Xrotation Yrotation
			JOINT LeftFoot
			{
				OFFSET 0.00000 -45.00070 0.00000
				CHANNELS 3 Zrotation Xrotation Yrotation
				JOINT LeftForeFoot
				{
					OFFSET 0.00000 -3.74824 0.00000
					CHANNELS 3 Zrotation Xrotation Yrotation
					JOINT LeftToeBase
					{
						OFFSET 0.00000 0.06325 14.43110
						CHANNELS 3 Zrotation Xrotation Yrotation
						End site
						{
							OFFSET 0.00000 0.00000 0.00000
						}
					}
				}
			}
		}
	}
}
MOTION
Frames: 4
Frame Time: 0.050000
0.016699868883886488 0.008464145233829747 -0.03640683413783018 -0.006637127318594019 -0.04101482792524791 -0.03150299205587502 -1.25137172817066 1.607549548670738 -1.0127256586882682 -0.9673951162216715 3.8923005337232226 0.3831836480733289 -1.1687971739370613 -1.9147131999942348 -0.3881704426981731 0.590092665689141 0.5914697275862861 -0.6572175753399363 0.7083323522469586 14.481335941239848 -2.437639109147878 0.17835008489985563 0.28906055635999317 -7.688071245102652 1.0520979744283094 -15.032167416309363 -0.6313958604280708 -6.025836163836499 1.9792419827494367 -14.843717317748538 72.74483682748448 28.91317150458064 7.917554754255331 2.7393954595000873 2.331440724557818 66.95329116130176 21.590676453807884 -0.38992632877871797 -4.406416811980077 4.521255860031647 -0.1156639076927838 -1.6330506082047687 -0.016431675943384145 -0.031756293978046087 -56.19443702017655 -0.013225418485222405 0.0031793969853470727 -56.26754449110678 -38.77269382240539 -0.01535739484377108 0.015878234136413986 -0.009013970095795614 -0.013023175856561268 0.016401481819093712 0.010726978873766268 0.017151415484314515 0.0032146606833017414 -36.69072461704785 0.03312405393102904 0.007582886906452387 0.029887643647967765 0.010953613600865077 0.04603392537987053 0.022588675465877627 0.04226335540572439 0.03402986717610687 -19.713931141434283 -0.01870106331939478 -0.03734399080421995 0.009930526260611904 -0.004040207352983444 0.03575154431698951 -0.021055155041632235 0.0459565982321677 -0.01771690129324527 24.080428231122117 0.011424838240220255 -0.023693435213218948 28.853267983305898 0.003293799635337188 0.03049800162718492 28.84216777189402 -0.004142690668538201 0.009664045521034234 5.960655252284741 1.4440909525460066 13.246666363092057 -68.81456302383648 29.70150453312376 -7.576723985945693 3.6493489578014198 -10.046530242736017 -56.45665790726603 -10.990501130517636 -0.3587456408338934 2.149861464407459 -0.4807691899949718 0.02289822290682774 -8.085511752584265 0.0050828670593764756 -0.029707582240816127 44.59001855243752 -0.004112274813791413 -0.042812058980983544 44.563679134880175 12.434461437180467 0.014344833280255034 0.04638076911880099 0.04941290528992173 0.021003836942272463 0.018142128769669447 0.007830023447526795 0.03615064358979135 -0.032755540278316474 11.096364401363791 0.006301260104784606 0.015598049161030282 -0.035657591822286346 -0.02841616824048134 -0.040910433457037536 -0.014469397205132095 -0.036237433950658905 -0.009004719740204312 4.802553894644809 -0.017086890365616315 0.0008174687861145111 0.002508057336148458 0.0031904282481183244 -0.039439204574144494 0.04335036411633205 -0.008216421862419507 -0.023982986960737616 -5.641064542691973 0.00036312032224436583 -0.029530126454789443 -6.745040068677654 -0.015569374686233664 0.021789797142952826 -6.745334322145145 0.025712432325486364 0.025784945361576203 0.015492814833055972 -0.012191949778760269 -0.009994313513803388 8.060581334217678 3.445384079861809 -19.23807314190022 0.015721245973827975 10.347521915363687 -0.01990686908690555 -5.603797863361516 -15.621965902006998 3.2082947484656406 0.04562842526772154 0.016892558196731404 0.025386693470887532 0.013821463241653995 4.693052217840676 0.02189956058689376 12.45181618270952 -8.255275331879027 6.872942991581548 -0.04135211119813466 46.34952783720488 -0.04507936861349547 -4.288077342075616 -14.753376393635474 -3.7984413820845786 -0.03470296278905754 -0.005734480106901601 0.0028908527296544074 0.004093854652532096 -10.724889052153257 -0.008103530541659439 
0.006973312103262521 -0.002770492401933061 -0.041115632121564855 0.04953751072977933 0.04085910069094697 0.008273281969365559 -1.0474351379782256 1.5591129521465192 -1.0674420611317852 -0.9296458658223786 3.8871270939056686 0.414144906492088 -1.237342107236856 -1.9243793435854977 -0.34510354002977023 0.638908642876926 0.6136605602846122 -0.6644971807702694 0.7737456339604927 14.543139343691537 -2.7827658133175426 0.16833734514170934 0.3209695324935334 -8.350975235555024 1.200679204814622 -15.058144479019562 -0.647293174643857 -6.392269454379552 2.129687439529227 -14.99530359319862 73.18385998478325 28.950311830378624 7.9404833123318115 2.5537016243608726 2.2948721845113305 66.20597956232957 21.49889177919117 -0.3844887724111784 -4.3561715279482005 4.514866261249261 -0.08844667261414485 -1.635982480050447 -0.018365075165792402 -0.0012447882072988672 -56.25748564512684 -0.04065454055075085 0.039590627060783944 -56.26557155313755 -38.80411019776631 0.023930834340356408 -0.027550952419979208 -0.045882374567821266 -0.023189951877209798 -0.026315698195352972 0.011315685814562729 0.021652367410778705 -0.043433532064468254 -36.65690630045179 0.004721531334511425 -0.022019136202400716 0.04468693673575772 0.010109576360134502 -0.008772361695442498 -0.047574488660107786 -0.03228655721748348 -0.02971417848810724 -19.75987774544995 0.008399500567452112 -0.030941299052844876 0.041918057099681945 -0.03386693858198789 -0.040021875477465926 0.027065662713438684 -0.04649021583771134 0.015550212154462506 24.064792569068405 0.04218913347514932 -0.03781681962260862 28.881965836471682 -0.021955202068928356 0.030805699488161944 28.862699523047922 -0.004867740235030819 -0.03871889389126833 6.079264154158506 1.5010617159049757 13.310833034361092 -69.2331792555453 29.66572163044033 -7.091304142969255 3.531671554228832 -9.5105239859506 -54.798001543246016 -11.299948228708569 -0.3405288208230849 2.107017814315901 -0.43186834249237477 0.0928457682917788 -8.091955821678122 -0.011005168575424546 -0.019348887109095898 44.55510908636622 0.03081321015284238 -0.039957658176917606 44.61388649127415 12.42748739426073 0.009139021672286144 0.006831674448690792 -0.03538793806635204 0.0038329900955213925 -0.013518744565728725 -0.028405375640708403 -0.0408456781241823 -0.04330991146842093 11.112098351936917 0.04447379762930168 -0.02120481694607024 -0.031465377740621865 0.030244266098653938 0.024118780719821285 -0.011420324936362075 -0.0391554586606404 0.008304780352946104 4.759066495196988 0.012615451808756657 -0.04554848046785308 -0.020892726992370138 0.011651087740172702 -0.02349193240665114 -0.007089803484769807 0.03804045390616896 0.012993380735955677 -5.604612107941326 -0.00814020851747436 -0.026521785656010113 -6.696738890619418 0.02541182914855253 -0.029343748863770867 -6.710655615948327 0.012887692183872262 -0.03380646074412593 0.02881991135191449 0.048866441768565014 0.027144739209790696 8.057240707499425 3.5428316693571142 -19.227586369841458 -0.0006345961241993851 10.383692650054714 -0.009161724198629626 -5.613897537955104 -15.63830043861003 3.153865127272872 0.010596650400221553 -0.007060182124650813 0.04381899673240391 -0.028020993395000842 4.65751649760663 0.041551670634692735 12.481416032087543 -8.246754238630519 6.920541990473634 -0.04711695924423337 46.3920031496022 0.03468429831433695 -4.317666747728912 -14.75295188137953 -3.8735347640366693 0.007805601166259751 0.004147235281058948 -0.00554957575267434 -0.002823401855446069 -10.762488601264915 -0.029986415663878524 
0.04982421813629617 -0.04689028793598014 -0.03338017687361511 0.04883065036282294 -0.018551363477687637 -0.017328845097234293 -0.7436045854393785 1.516668297240335 -1.089623725160734 -0.927138518314063 3.9023267666087955 0.3803147379733066 -1.1664859197040673 -1.899906346510593 -0.2438586604276874 0.6528674338585797 0.5368369364268615 -0.6925936375718276 0.8751309791920444 14.635599063289604 -3.0765887726354477 0.11449772658023112 0.29281198992214097 -9.088332466017247 1.2923727399417857 -15.117798794990351 -0.7087781334693181 -6.721273525431708 2.177613105894184 -15.155320443892162 73.27421220017443 29.117166379418716 8.181874683397767 2.6958926305891886 2.2500735602067197 66.17248125458342 21.54980967241011 -0.4111383984959913 -4.276088937688631 4.551806205223762 -0.09730075807248295 -1.5923721839035057 -0.012037080101893784 -0.03533722017309843 -56.2331558299904 -0.006961899125200385 -0.028699311763393538 -56.190817936883576 -38.76441352205392 -0.02098893841890843 -0.008501862794008948 -0.0356517735801232 -0.02876334406323741 0.013813240504120989 -0.044723804695911994 0.024158580470330253 -0.02706256684777031 -36.693934525443645 0.021555099894881413 0.01141579421948126 -0.04124707815962835 -0.02119882464447653 -0.03862134845034854 0.009586926436827547 0.0015684639392230847 -0.04480021126121148 -19.720961799009444 0.02817385775449014 -0.01934636233569914 0.0015275453894575512 -0.03266029635111507 -0.04638860186367776 0.03218458740723759 0.0492155542142981 0.022168799062922715 24.07560827828529 -0.004688344666888718 0.04370141830584821 28.846663087576946 0.022226784908382778 -0.007398770656417268 28.87331297740356 -0.0023276025522312844 0.001015622916712327 6.039741557385335 1.528072066056603 13.271166024862152 -69.59719049632028 29.786283402244532 -6.466027314932682 3.2156664631781786 -8.998427617225524 -53.299982196853186 -11.770825814500837 -0.20495582601698956 2.088074653591665 -0.47431072145837594 0.09027359335310944 -8.097771034935292 0.006568874994358392 0.014141571347066012 44.536703693989274 0.04558222138251163 -0.002746916983100348 44.54591781146172 12.48281880785861 -0.020503627524606036 -0.017227495007101284 -0.030128343057250186 0.046176627295787254 0.008829680976800012 -0.045634318665740366 -0.005236423346002682 0.014319975322332631 11.082885289065807 0.04844172151206734 0.01656277226605086 0.0375002745177596 -0.006896392492694269 -0.011429528502766712 0.009549534981028542 0.010960624075911193 -0.017394309764585555 4.801766816843201 -0.010348754721081464 -0.04208523340807742 0.006635002194296466 0.0023323695938972954 0.041503501455962946 -0.008249988259143413 0.020300455005043235 0.03481759927401154 -5.552203303579565 0.04544145119713598 0.003887730552226455 -6.701547293917027 -0.037931392631894795 0.03249157877178317 -6.710292792241402 -0.025925623721038987 0.03435256038172553 0.031711595915383486 0.00942550474201776 0.0220372538593986 8.080511718097743 3.453807131030412 -19.217678297761335 0.042708374869758876 10.41751599676828 0.005269905115028247 -5.63684984393883 -15.695183643337973 3.2316879791663524 0.047640703834486105 -0.03129641724237154 -0.03591715125571653 0.016935332989666426 4.729662088997552 0.009098027657425666 12.465074934840548 -8.266609983091612 6.911012013095232 0.022051466480242008 46.342644499200276 0.049687612592367765 -4.329220583541311 -14.707139600266007 -3.845805600225648 -0.019288717742666394 -0.02064233472157058 -0.04330425636900012 0.023907949600431078 -10.734888058656534 -0.04389077115064375 
-0.042727676266026964 0.002281362510735667 -0.018099465316116694 -0.018806481167654578 -0.045916951781212856 -0.0069195698321441795 -0.5092532783750205 1.4511263031880246 -1.0930324140507777 -0.9472376181270945 3.863152536834225 0.3985425843671277 -1.179037113923938 -1.9568309570619395 -0.12692840603192057 0.7517463213028247 0.6059246720539342 -0.5853339614771763 0.9706785193369829 14.575791793966886 -3.3319634471065886 0.1322668005746253 0.2901940886949306 -9.760631659020941 1.3299832856453648 -15.189378277070027 -0.8264056603207213 -6.911841715559223 2.2439862058696014 -15.329401314542658 73.37970737936233 29.267555388903833 8.224039170208991 1.717797317468151 2.1245816645485656 66.15067699878269 21.589994298688108 -0.4271343317377787 -4.401797773887177 4.492405256220186 -0.0969411582876481 -1.5661887069649982 0.0061959042035433605 -0.01428039555471517 -56.26594588430058 -0.036152889591519737 0.04894532554402503 -56.19584342638031 -38.767018882772156 -0.011716609575134327 -0.01803305827067815 -0.004748953786679108 0.04409289794092276 0.022537370197054405 -0.03345452265941903 0.0458846186711162 -0.038952577455139734 -36.71233465400436 0.021120137503363882 0.010861065857135895 0.024272140440551985 -0.04517515861480177 0.03465946370806885 -0.04356018405312827 0.02521761420225185 0.022523364701875454 -19.782003661467982 -0.03638438489245591 -0.005096850654957325 -0.028090329255803397 -0.028374610473855956 0.0370227481110341 0.022703021489729743 0.024162448342757856 0.03920787035778234 24.026110415422355 -0.005895736603408272 -0.048268062728877396 28.85516501273467 0.03086270703006316 0.019009698579464673 28.818065209676696 0.0005152989476121816 0.013648288205724729 5.989016154053305 1.4937459522386134 13.407569438943485 -70.0077894132939 29.86378955701444 -5.560782338270613 2.797515845348299 -8.181075795824324 -51.89017633815011 -12.343109089079382 -0.20493569420810517 2.1406223361533154 -0.47688020504413153 0.08280029220726319 -8.118249040799459 0.013757273666580758 0.033546115583449776 44.53596753113732 0.03671434126262641 0.03502660060144247 44.57355027187412 12.456390440287205 -0.005010033351050786 0.04980705577520126 -0.03637137272589414 0.01643144142538461 0.0006287386152328847 -0.016399022752974803 -0.030988111971083927 0.02423690614592836 11.130528576140158 -0.038957343122332046 -0.013041558668335687 -0.010792366227830974 -0.03394332264713502 -0.016108281016762187 0.002885366783821242 0.006738473256259131 0.015413783951839405 4.805099131639427 -0.010828077499144821 0.0010385550112458736 -0.022513594383588853 0.008191047670439473 -0.026604256044454544 -0.03476231858651039 0.029652584590756863 0.03229822708288827 -5.602028238654656 -0.00026452245575046856 0.045173379750519056 -6.74249393544914 -0.010190065507432185 0.047710647006617965 -6.724929319377203 0.016220892698592167 0.01138340906521019 -0.009549798003078439 -0.025619958459484587 -0.02265722373904138 8.034448096050474 3.490710807355751 -19.208106199909007 -0.03801760030988618 10.360401816288519 0.0568074584408908 -5.595527137781771 -15.652671225975082 3.2177941454513657 -0.015511719999855995 -0.046483642035927114 -0.010003925508959614 0.0007500247887923546 4.696095580133864 -0.03346725778915116 12.422242273068859 -8.24025490749263 6.862898935473285 0.021038145411352217 46.37768235289861 0.023058835152437788 -4.321796013592309 -14.784721158179138 -3.8601292014899014 0.004988643620490251 0.02616990373704625 -0.03527617217459237 0.0007240593931079172 -10.731819723986487 0.01680316845724614 
